<?xml version="1.0" encoding="utf-8"?>
<svg id="master-artboard" viewBox="0 0 700 140" xmlns="http://www.w3.org/2000/svg" width="700px" height="140px"
  version="1.1"
  style="shape-rendering:geometricPrecision; text-rendering:geometricPrecision; image-rendering:optimizeQuality; fill-rule:evenodd; clip-rule:evenodd">
  <rect id="ee-background" x="0" y="0" width="700" height="140"
    style="fill: white; fill-opacity: 0; pointer-events: none;" />
  <g transform="matrix(1.2436549663543701, 0, 0, 1.2436549663543701, 115.8199827671051, -0.000002600930201879237)">
    <desc>Created with Fabric.js 3.5.0</desc>
    <g transform="matrix(4.329669952392578, 0, 0, 4.020407676696777, -36.52914047241211, 56.4484977722168)" id="487855">
      <path
        style="stroke: none; stroke-width: 1; stroke-dasharray: none; stroke-linecap: butt; stroke-dashoffset: 0; stroke-linejoin: miter; stroke-miterlimit: 4; is-custom-font: none; font-file-url: none; fill: rgb(0,0,0); fill-rule: nonzero; opacity: 1;"
        vector-effect="non-scaling-stroke" transform=" translate(-16, -16)"
        d="M 23.4 8.9 c 0.1 -0.2 0.3 -0.4 0.4 -0.6 C 24 8.1 24 7.7 23.9 7.5 c 0 -0.1 -0.1 -0.3 -0.1 -0.4 c 0 0 0 0 0 0 c -0.4 -0.8 -1 -1.3 -1.9 -1.6 c -0.8 -0.2 -1.7 -0.2 -2.5 0.1 C 18.9 3.4 17.6 2 16 2 c -1.5 0 -2.8 1.4 -3.3 3.5 c -0.9 -0.2 -1.7 -0.2 -2.4 0 C 9.4 5.8 8.8 6.3 8.4 7.1 C 8.3 7.3 8.2 7.5 8.2 7.8 C 8.1 8 8.1 8.3 8.3 8.5 c 0.1 0.1 0.2 0.3 0.3 0.4 C 4.9 9.7 3 12.5 3 17.4 C 3 24.4 8.8 30 16 30 s 13 -5.6 13 -12.6 C 29 12.5 27.1 9.7 23.4 8.9 z M 10.8 7.4 c 0.6 -0.2 1.4 -0.1 2.2 0.4 c 0.3 0.2 0.7 0.2 1 0 c 0.3 -0.2 0.5 -0.5 0.5 -0.8 c 0.1 -1.8 0.9 -3 1.6 -3 c 0.6 0 1.4 1.3 1.6 3.1 c 0 0.3 0.2 0.7 0.5 0.8 c 0.3 0.2 0.7 0.2 1 0 c 0.8 -0.5 1.6 -0.6 2.3 -0.4 c 0.2 0.1 0.4 0.2 0.5 0.3 c -1.4 2 -3.5 3.2 -5.7 3.2 L 16 11 c -2.2 0 -4.3 -1.1 -5.8 -3.1 C 10.4 7.7 10.6 7.5 10.8 7.4 z"
        stroke-linecap="round" />
    </g>
    <g transform="matrix(0.8646120429039003, 0, 0, 0.8646120429039003, 256.2030029296875, 62.96766669780561)" style=""
      id="800622">

      <path font-family="Acme" font-size="112" font-style="normal" font-weight="normal"
        style="stroke: none; stroke-width: 1; stroke-dasharray: none; stroke-linecap: butt; stroke-dashoffset: 0; stroke-linejoin: miter; stroke-miterlimit: 4; is-custom-font: none; font-file-url: none; fill: rgb(0,0,0); fill-rule: nonzero; opacity: 1; white-space: pre;"
        d="M-240.97-42.10L-216.66-42.10Q-205.91-42.10-199.53-35.99Q-193.14-29.89-193.14-19.25Q-193.14-8.61-201.21-1.05Q-209.27 6.51-220.92 6.51L-220.92 6.51L-227.30 6.51L-225.96 35.18L-240.97 35.18L-239.62 7.97L-240.97-42.10ZM-220.70-30.78L-220.70-30.78L-226.18-30.78L-226.97-4.35L-219.35-4.35Q-213.75-4.35-210.67-8.05Q-207.59-11.74-207.59-18.58L-207.59-18.58Q-207.59-30.78-220.70-30.78Z" />
      <path font-family="Acme" font-size="112" font-style="normal" font-weight="normal"
        style="stroke: none; stroke-width: 1; stroke-dasharray: none; stroke-linecap: butt; stroke-dashoffset: 0; stroke-linejoin: miter; stroke-miterlimit: 4; is-custom-font: none; font-file-url: none; fill: rgb(0,0,0); fill-rule: nonzero; opacity: 1; white-space: pre;"
        d="M-190.34 11.78Q-190.34-2.56-182.62-12.53Q-174.89-22.50-164.53-22.50Q-154.17-22.50-148.40-15.78Q-142.63-9.06-142.63 2.03L-142.63 2.03Q-142.63 16.82-150.08 26.62Q-157.53 36.42-168.84 36.42L-168.84 36.42Q-178.14 36.42-184.24 29.42Q-190.34 22.42-190.34 11.78L-190.34 11.78ZM-155.18 7.86L-155.18 7.86Q-155.18-8.38-166.26-8.38L-166.26-8.38Q-177.80-8.38-177.80 6.85L-177.80 6.85Q-177.80 14.80-174.55 19.28Q-171.30 23.76-165.98 23.76Q-160.66 23.76-157.92 19.67Q-155.18 15.58-155.18 7.86Z" />
      <path font-family="Acme" font-size="112" font-style="normal" font-weight="normal"
        style="stroke: none; stroke-width: 1; stroke-dasharray: none; stroke-linecap: butt; stroke-dashoffset: 0; stroke-linejoin: miter; stroke-miterlimit: 4; is-custom-font: none; font-file-url: none; fill: rgb(0,0,0); fill-rule: nonzero; opacity: 1; white-space: pre;"
        d="M-101.08 6.85Q-101.08-0.88-102.42-3.46Q-103.77-6.03-108.70-6.03Q-113.62-6.03-119.90-2.11L-119.90-2.11L-119.90 6.06L-118.66 32.38L-133.67 35.18L-132.33 7.97Q-132.78-7.04-134.79-18.91L-134.79-18.91L-121.24-21.82Q-120.46-15.33-120.12-9.17L-120.12-9.17Q-118.44-11.41-116.31-13.59Q-114.18-15.78-109.59-18.52Q-105.00-21.26-100.30-21.26Q-95.59-21.26-92.34-18.24Q-89.10-15.22-88.20-9.95L-88.20-9.95Q-78.90-21.26-69.38-21.26L-69.38-21.26Q-63.45-21.26-59.98-17.29Q-56.50-13.31-56.50-6.48L-56.50-6.48L-57.18 6.06L-55.94 32.94L-71.06 35.74L-69.72 6.85Q-69.72-0.88-71.06-3.46Q-72.41-6.03-77.22-6.03Q-82.04-6.03-88.09-2.34L-88.09-2.34L-88.54 6.06L-87.30 32.94L-102.42 35.74L-101.08 6.85Z" />
      <path font-family="Acme" font-size="112" font-style="normal" font-weight="normal"
        style="stroke: none; stroke-width: 1; stroke-dasharray: none; stroke-linecap: butt; stroke-dashoffset: 0; stroke-linejoin: miter; stroke-miterlimit: 4; is-custom-font: none; font-file-url: none; fill: rgb(0,0,0); fill-rule: nonzero; opacity: 1; white-space: pre;"
        d="M-47.54 11.78Q-47.54-2.56-39.82-12.53Q-32.09-22.50-21.73-22.50Q-11.37-22.50-5.60-15.78Q0.17-9.06 0.17 2.03L0.17 2.03Q0.17 16.82-7.28 26.62Q-14.73 36.42-26.04 36.42L-26.04 36.42Q-35.34 36.42-41.44 29.42Q-47.54 22.42-47.54 11.78L-47.54 11.78ZM-12.38 7.86L-12.38 7.86Q-12.38-8.38-23.46-8.38L-23.46-8.38Q-35-8.38-35 6.85L-35 6.85Q-35 14.80-31.75 19.28Q-28.50 23.76-23.18 23.76Q-17.86 23.76-15.12 19.67Q-12.38 15.58-12.38 7.86Z" />
      <path font-family="Acme" font-size="112" font-style="normal" font-weight="normal"
        style="stroke: none; stroke-width: 1; stroke-dasharray: none; stroke-linecap: butt; stroke-dashoffset: 0; stroke-linejoin: miter; stroke-miterlimit: 4; is-custom-font: none; font-file-url: none; fill: rgb(0,0,0); fill-rule: nonzero; opacity: 1; white-space: pre;"
        d="M6.10 27.68Q6.10 24.10 8.74 21.35Q11.37 18.61 15.06 18.61L15.06 18.61Q22.34 18.61 22.34 26.00L22.34 26.00Q22.34 30.26 19.71 33.06Q17.08 35.86 13.55 35.86Q10.02 35.86 8.06 33.56Q6.10 31.26 6.10 27.68ZM6.10-1.78Q6.10-5.36 8.74-8.10Q11.37-10.85 15.06-10.85L15.06-10.85Q22.34-10.85 22.34-3.46L22.34-3.46Q22.34 0.80 19.71 3.60Q17.08 6.40 13.55 6.40Q10.02 6.40 8.06 4.10Q6.10 1.81 6.10-1.78Z" />
      <path font-family="Acme" font-size="112" font-style="normal" font-weight="normal"
        style="stroke: none; stroke-width: 1; stroke-dasharray: none; stroke-linecap: butt; stroke-dashoffset: 0; stroke-linejoin: miter; stroke-miterlimit: 4; is-custom-font: none; font-file-url: none; fill: rgb(0,0,0); fill-rule: nonzero; opacity: 1; white-space: pre;"
        d="M61.21 24.21L61.21 24.21Q52.47 35.18 46.09 35.18L46.09 35.18Q38.14 35.18 33.04 28.69Q27.94 22.19 27.94 12.00L27.94 12.00Q27.94-2.00 35.73-11.63Q43.51-21.26 54.82-21.26L54.82-21.26L61.10-20.37L61.10-22.50L59.75-48.70L75.10-51.50L73.64 6.06L73.64 15.92Q73.64 22.64 77 31.38L77 31.38L64.90 36.42Q61.66 29.70 61.21 24.21ZM40.49 6.18Q40.49 13.34 43.12 17.38Q45.75 21.41 50.74 21.41Q55.72 21.41 61.10 17.38L61.10 17.38L61.10-6.82Q54.38-8.16 51.13-8.16L51.13-8.16Q46.09-8.16 43.29-4.58Q40.49-0.99 40.49 6.18Z" />
      <path font-family="Acme" font-size="112" font-style="normal" font-weight="normal"
        style="stroke: none; stroke-width: 1; stroke-dasharray: none; stroke-linecap: butt; stroke-dashoffset: 0; stroke-linejoin: miter; stroke-miterlimit: 4; is-custom-font: none; font-file-url: none; fill: rgb(0,0,0); fill-rule: nonzero; opacity: 1; white-space: pre;"
        d="M83.94 11.78Q83.94-2.56 91.67-12.53Q99.40-22.50 109.76-22.50Q120.12-22.50 125.89-15.78Q131.66-9.06 131.66 2.03L131.66 2.03Q131.66 16.82 124.21 26.62Q116.76 36.42 105.45 36.42L105.45 36.42Q96.15 36.42 90.05 29.42Q83.94 22.42 83.94 11.78L83.94 11.78ZM119.11 7.86L119.11 7.86Q119.11-8.38 108.02-8.38L108.02-8.38Q96.49-8.38 96.49 6.85L96.49 6.85Q96.49 14.80 99.74 19.28Q102.98 23.76 108.30 23.76Q113.62 23.76 116.37 19.67Q119.11 15.58 119.11 7.86Z" />
      <path font-family="Acme" font-size="112" font-style="normal" font-weight="normal"
        style="stroke: none; stroke-width: 1; stroke-dasharray: none; stroke-linecap: butt; stroke-dashoffset: 0; stroke-linejoin: miter; stroke-miterlimit: 4; is-custom-font: none; font-file-url: none; fill: rgb(0,0,0); fill-rule: nonzero; opacity: 1; white-space: pre;"
        d="M137.59 27.68Q137.59 24.10 140.22 21.35Q142.86 18.61 146.55 18.61L146.55 18.61Q153.83 18.61 153.83 26.00L153.83 26.00Q153.83 30.26 151.20 33.06Q148.57 35.86 145.04 35.86Q141.51 35.86 139.55 33.56Q137.59 31.26 137.59 27.68ZM137.59-1.78Q137.59-5.36 140.22-8.10Q142.86-10.85 146.55-10.85L146.55-10.85Q153.83-10.85 153.83-3.46L153.83-3.46Q153.83 0.80 151.20 3.60Q148.57 6.40 145.04 6.40Q141.51 6.40 139.55 4.10Q137.59 1.81 137.59-1.78Z" />
      <path font-family="Acme" font-size="112" font-style="normal" font-weight="normal"
        style="stroke: none; stroke-width: 1; stroke-dasharray: none; stroke-linecap: butt; stroke-dashoffset: 0; stroke-linejoin: miter; stroke-miterlimit: 4; is-custom-font: none; font-file-url: none; fill: rgb(0,0,0); fill-rule: nonzero; opacity: 1; white-space: pre;"
        d="M161.90-18.91L161.90-18.91L175.45-21.82Q176.46-13.20 176.79-5.47L176.79-5.47Q186.98-21.26 195.94-21.26L195.94-21.26L194.71-3.79Q188.22-3.79 184.46-2.62Q180.71-1.44 176.79 2.03L176.79 2.03L176.79 6.06L178.02 32.38L163.02 35.18L164.36 7.97Q163.91-7.04 161.90-18.91Z" />
      <path font-family="Acme" font-size="112" font-style="normal" font-weight="normal"
        style="stroke: none; stroke-width: 1; stroke-dasharray: none; stroke-linecap: butt; stroke-dashoffset: 0; stroke-linejoin: miter; stroke-miterlimit: 4; is-custom-font: none; font-file-url: none; fill: rgb(0,0,0); fill-rule: nonzero; opacity: 1; white-space: pre;"
        d="M199.08 11.78Q199.08-2.56 206.81-12.53Q214.54-22.50 224.90-22.50Q235.26-22.50 241.02-15.78Q246.79-9.06 246.79 2.03L246.79 2.03Q246.79 16.82 239.34 26.62Q231.90 36.42 220.58 36.42L220.58 36.42Q211.29 36.42 205.18 29.42Q199.08 22.42 199.08 11.78L199.08 11.78ZM234.25 7.86L234.25 7.86Q234.25-8.38 223.16-8.38L223.16-8.38Q211.62-8.38 211.62 6.85L211.62 6.85Q211.62 14.80 214.87 19.28Q218.12 23.76 223.44 23.76Q228.76 23.76 231.50 19.67Q234.25 15.58 234.25 7.86Z" />
    </g>
  </g>
</svg>